<svg xmlns="http://www.w3.org/2000/svg" version="1.1" xmlns:xlink="http://www.w3.org/1999/xlink" xmlns:svgjs="http://svgjs.com/svgjs" width="1440" height="560" preserveAspectRatio="none" viewBox="0 0 1440 560">
    <g mask="url(&quot;#SvgjsMask1036&quot;)" fill="none">
        <circle r="5.71" cx="549.2" cy="282.19" filter="url(#SvgjsFilter1037)" fill="rgba(51, 121, 194, 0.58)"></circle>
        <circle r="6.055" cx="197.925" cy="475.21500000000003" filter="url(#SvgjsFilter1037)" fill="rgba(51, 121, 194, 0.58)"></circle>
        <circle r="5.76" cx="215.48" cy="461.19" filter="url(#SvgjsFilter1037)" fill="rgba(51, 121, 194, 0.58)"></circle>
        <circle r="5.615" cx="674.4350000000001" cy="558.065" filter="url(#SvgjsFilter1037)" fill="rgba(51, 121, 194, 0.58)"></circle>
        <circle r="5.87" cx="978.48" cy="371.24" filter="url(#SvgjsFilter1037)" fill="rgba(51, 121, 194, 0.58)"></circle>
        <circle r="7.76" cx="914.16" cy="63.93" filter="url(#SvgjsFilter1037)" fill="rgba(51, 121, 194, 0.58)"></circle>
        <circle r="6.42" cx="14.059999999999999" cy="321.72" filter="url(#SvgjsFilter1037)" fill="rgba(51, 121, 194, 0.58)"></circle>
        <circle r="6.35" cx="844.4" cy="494.32000000000005" filter="url(#SvgjsFilter1037)" fill="rgba(51, 121, 194, 0.58)"></circle>
        <circle r="6.325" cx="431.445" cy="43.075" filter="url(#SvgjsFilter1037)" fill="rgba(51, 121, 194, 0.58)"></circle>
        <circle r="9.095" cx="822.5350000000001" cy="206.595" filter="url(#SvgjsFilter1037)" fill="rgba(51, 121, 194, 0.58)"></circle>
        <circle r="8.68" cx="861.9599999999999" cy="490.59000000000003" filter="url(#SvgjsFilter1037)" fill="rgba(51, 121, 194, 0.58)"></circle>
        <circle r="6.345" cx="844.875" cy="225.175" filter="url(#SvgjsFilter1037)" fill="rgba(51, 121, 194, 0.58)"></circle>
        <circle r="5.645" cx="732.835" cy="402.115" filter="url(#SvgjsFilter1037)" fill="rgba(51, 121, 194, 0.58)"></circle>
        <circle r="5.91" cx="1353.44" cy="137.39" filter="url(#SvgjsFilter1037)" fill="rgba(51, 121, 194, 0.58)"></circle>
        <circle r="8.975" cx="356.915" cy="231.405" filter="url(#SvgjsFilter1037)" fill="rgba(51, 121, 194, 0.58)"></circle>
        <circle r="8.16" cx="639.99" cy="45.05" filter="url(#SvgjsFilter1037)" fill="rgba(51, 121, 194, 0.58)"></circle>
        <circle r="9.24" cx="682.6" cy="521.24" filter="url(#SvgjsFilter1037)" fill="rgba(51, 121, 194, 0.58)"></circle>
        <circle r="8.185" cx="844.305" cy="450.555" filter="url(#SvgjsFilter1037)" fill="rgba(51, 121, 194, 0.58)"></circle>
        <circle r="6.88" cx="14.66" cy="138.51999999999998" filter="url(#SvgjsFilter1037)" fill="rgba(51, 121, 194, 0.58)"></circle>
        <circle r="7.965" cx="374.655" cy="540.635" filter="url(#SvgjsFilter1037)" fill="rgba(51, 121, 194, 0.58)"></circle>
        <path d="M379 74.5L389.3 113 371.4 143.6 353.8 112.8 364.6 74.4C364.6 74.4 364.6 74 364.6 74 364.6 73 363.6 72 362.7 71.5 361.2 71.1 359.8 72 359.8 73.5L350.5 107 341.9 92.1 345.8 77.2C345.8 77.2 345.8 76.7 345.8 76.7 345.8 75.8 344.9 74.8 343.9 74.3 342.5 73.9 341 74.8 341 76.2L338.1 86.3 331.9 75.2C331.4 74.3 329.5 73.8 328.6 74.3 327.1 74.7 327.1 76.7 327.6 77.6L333.8 88.7 323.7 85.8C322.3 85.3 320.8 86.2 320.8 87.7 320.3 89.1 321.3 90.6 322.7 90.6L337.6 94.5 345.7 109.4 312.1 100.1C310.7 99.6 309.2 100.6 309.2 102 308.8 103.5 309.7 104.9 311.1 104.9L349.5 115.6 367.1 146.4 331.1 146.3 302.9 117.8C302 116.9 300.5 116.9 299.6 117.8 298.6 118.8 298.6 120.2 299.5 121.2L324.4 146.2 307.1 146.2 296.6 135.6C295.6 134.6 294.2 134.6 293.2 135.5 292.3 136.5 292.3 137.9 293.2 138.9L300.4 146.1 287 146.1C285.5 145.6 284.5 147 284.5 148.5 284.5 149.9 285.5 150.9 286.9 150.9L299.4 150.9 292.2 158.1C291.2 159.1 291.2 160.5 292.2 161.5S294.6 162.4 295.5 161.5L306.1 151 323.4 151 298.3 175.9C297.4 176.8 297.4 178.3 298.3 179.2 299.3 180.2 300.7 180.2 301.7 179.3L330.1 151.1 365.6 151.2 347.7 181.9 310.3 191.8C308.8 192.3 308.3 193.7 308.3 195.1 308.8 196.6 310.2 197.1 311.7 197.1L345.3 188.1 336.6 202.9 321.7 206.7C320.3 207.2 319.8 208.6 319.8 210.1 320.2 211.5 321.7 212 322.6 212L332.7 209.2 326.4 220.2C326 221.1 325.9 223.1 327.4 223.5 328.8 224 330.3 224 330.7 222.6L337 211.6 339.9 221.7C340.3 223.1 341.8 223.6 342.7 223.6 343.7 223.1 344.7 222.2 344.7 221.2 344.7 221.2 344.7 220.7 344.7 220.7L340.9 205.8 349.6 191 358.6 224.6C359.1 226.1 360.5 226.6 361.5 226.6 362.4 226.1 363.4 225.2 363.4 224.2 363.4 224.2 363.4 223.7 363.4 223.7L353 185.3 370.9 154.6 388.5 185.4 377.8 223.8C377.3 225.2 378.3 226.7 379.7 226.7 381.1 227.2 382.6 226.2 382.6 224.8L391.9 191.2 400.4 206.1 396.5 221C396 222.4 397 223.9 398.4 223.9 399.9 224.4 401.3 223.4 401.3 222L404.2 211.9 410.4 223C410.9 223.9 412.8 224.4 413.8 223.9 414.7 223.5 415.2 222.5 415.2 221.6 415.2 221.1 415.2 220.6 414.8 220.1L408.6 209 418.6 212C420.1 212.5 421.5 211.5 421.5 210.1 421.5 210.1 421.5 209.6 421.5 209.6 421.5 208.6 420.6 207.7 419.6 207.2L404.8 203.3 396.2 188.3 429.7 197.6C431.2 198.1 432.6 197.2 432.6 195.7 432.6 195.7 432.6 195.2 432.6 195.2 432.6 194.3 431.7 193.3 430.7 192.8L392.4 182.1 374.8 151.3 410.3 151.5 438.5 179.9C439.4 180.9 440.9 180.9 441.8 179.9 442.8 179 442.8 177.5 441.8 176.6L417.5 151.5 434.8 151.6 445.3 162.2C446.2 163.1 447.7 163.1 448.6 162.2S449.6 159.8 448.7 158.8L441.5 151.6 454 151.7C455.4 151.7 456.4 150.7 456.4 149.3 456.4 147.8 455.4 146.9 454 146.9L441.5 146.8 448.7 139.6C449.2 139.2 449.7 138.7 449.7 137.7S449.2 136.3 448.8 135.8C447.8 134.8 446.4 134.8 445.4 135.8L434.8 146.3 417.5 146.2 442.6 121.4C443.1 120.9 443.6 120.4 443.6 119.4 443.6 119 443.1 118 442.6 117.5 441.7 116.6 440.2 116.6 439.2 117.5L410.8 145.7 375.3 145.5 393.2 114.9 431.6 104.5C432.6 104 433.6 103.1 433.6 102.1 433.6 102.1 433.6 101.6 433.6 101.6 433.1 100.2 431.7 99.7 430.7 99.7L397 108.7 405.8 93.8 420.7 90.1C421.6 89.6 422.6 88.6 422.6 87.7 422.6 87.7 422.6 87.2 422.6 87.2 422.1 85.7 420.7 85.3 419.7 85.3L409.6 88.1 415.9 77.1C415.9 76.6 416.4 76.1 416.4 75.6 416.4 74.7 415.9 73.7 415 73.2 413.5 72.7 412.1 72.7 411.6 74.2L405.3 85.2 402.5 75.1C402 73.7 400.6 73.2 399.6 73.2 398.2 73.6 397.7 75.1 397.7 76L401.5 90.9 392.7 105.8 383.8 72.1C383.3 70.7 381.9 70.2 380.9 70.2 379.5 71.6 378.5 73.1 379 74.5Z" fill="rgba(51, 121, 194, 0.58)"></path>
        <path d="M470.9 314.4L487.4 317.7 481.1 325.6C480.3 326.3 480.4 327.9 481.3 329.1 482.5 329.6 484 329.6 484.6 328.4L492.9 318.8 505.8 320.7 488.6 340.7C488 342 488 343.5 488.8 344.2 490.2 345.2 491.7 345.2 492.3 344L511.3 321.8 531 325.5 514.2 341.2 537.2 342.6 524.3 357.9 495.5 353C495.4 352.6 494.9 352.7 494.5 352.9 493.6 353.2 492.8 354 492.7 355.1 492.6 356.1 493.5 357.3 494.7 357.9L520.8 362.3 512.1 372.1 499.6 369.9C499 369.6 498.5 369.8 498.1 370 497.6 370.1 496.9 370.9 496.7 372 496.6 373 497.5 374.2 498.6 374.3L508.5 376.4 497.9 389.4C496.7 390.3 497.2 391.7 498.1 392.9 498.9 393.6 500.4 393.6 501.5 392.2L512.2 379.6 515.7 389.1C516.1 390.5 517.8 390.9 518.7 390.6 520.1 390.1 520.7 388.9 520.2 387.5L515.8 375.3 524.5 365.5 533.3 389.9C533.8 391.3 535 391.9 536.4 391.4 537.3 391 538.3 389.7 537.8 388.3L528.1 361.2 540.9 345.9 546.3 367.9 558.9 349.1 565.7 368.1 547.1 390.1C546.1 391.4 546.6 392.8 547.3 393.5 548.1 394.3 549.6 394.2 550.8 393.3L567.5 373 571.9 385.2 563.8 395.3C562.6 396.2 562.6 397.7 564 398.8 564.8 399.5 566.3 399.5 567.3 398.1L573.8 390.6 579.5 406.4C580 407.8 581.3 408.4 582.6 407.9S584.5 406.2 584.1 404.8L578.4 389 588.1 390.6C589.8 391 591 390.1 591.1 389 591.5 387.3 590.6 386.1 589.1 386.2L576.4 383.6 572 371.4 597.8 376.4C599.3 376.4 600.5 375.4 600.6 374.4 601.1 372.7 600.1 371.5 598.6 371.5L570.2 366.4 563.4 347.5 585.1 353.9 575.2 333.5 594.9 337.1 604.7 364.2C605.1 365.6 606.8 366 607.7 365.7 609.1 365.2 609.7 364 609.2 362.6L600.2 337.8 613.3 340.2 617.7 352.4C618.2 353.8 619.5 354.3 620.8 353.8 621.7 353.5 622.7 352.1 622.3 350.8L618.8 341.3 635.2 344.1C636.8 344.5 638 343.6 638 342.1 638.1 341 637.6 339.6 636.1 339.7L619.6 336.4 626 328.5C626.7 327.7 626.7 326.2 625.9 325.5 625.1 324.7 624.1 324.6 623.6 324.8 623.2 324.9 622.7 325.1 622.4 325.7L614.1 335.3 601.2 333.4 618.5 313.4C619.1 312.1 619 310.6 618.2 309.9 617.5 309.1 616.4 309 615.5 309.3 615 309.5 615 309.5 614.8 310.1L595.7 332.3 576 328.6 592.8 312.9 569.9 311.5 582.7 296.1 611.5 301.1C612.6 301.2 613.9 300.7 614.3 299 614.5 298 613.5 296.8 612.3 296.2L586.2 291.8 595 282 607.5 284.2C608.7 284.7 609.9 283.8 610.3 282.1 610.4 281.1 609.5 279.9 608.3 279.3L598.5 277.7 609.1 264.7C610.3 263.8 609.8 262.4 608.9 261.2 608.3 260.9 607.2 260.8 606.8 261 606.3 261.1 605.9 261.3 605.6 261.9L594.8 274.4 591.4 265C590.9 263.6 589.2 263.2 588.3 263.5L588.3 263.5C586.9 264 586.4 265.2 586.9 266.6L591.2 278.8 582.5 288.6 573.7 264.2C573.3 262.8 572 262.2 570.7 262.7S568.7 264.4 569.2 265.8L579 292.9 566.1 308.2 560.8 286.2 548.1 305 541.3 286 559.9 264C561 262.6 560.5 261.3 559.7 260.5 558.9 259.8 557.4 259.8 556.2 260.8L539.4 280.6 535.1 268.9 543.2 258.8C544.4 257.9 544.4 256.4 543 255.3 542.2 254.6 540.7 254.6 539.5 255.6L533.2 263.5 527.5 247.6C527 246.3 525.8 245.7 524.4 246.2S522.5 247.9 523 249.3L528.7 265.1 518.9 263.5C518.3 263.2 517.8 263.4 517.4 263.5 516.5 263.8 516.2 264.5 515.9 265.1 515.5 266.8 516.4 267.9 518 267.9L530.6 270.5 535 282.7 509.2 277.7C508.8 277.8 508.3 278 507.9 278.2 507 278.5 506.7 279.1 506.4 279.7 506 281.4 506.9 282.6 508.4 282.6L536.8 287.7 543.6 306.6 521.9 300.2 531.8 320.6 512.1 316.9 502.4 289.8C501.9 288.5 500.2 288.1 499.3 288.4 498 288.9 497.4 290.1 497.9 291.5L506.6 315.9 493.7 313.9 489.3 301.7C488.8 300.3 487.6 299.8 486.2 300.2S484.3 302 484.8 303.3L488.2 312.8 471.9 310C471.3 309.7 470.8 309.9 470.4 310 469.9 310.2 469.2 311 469 312 468.9 313.1 469.4 314.5 470.9 314.4ZM530.7 307.7L548.5 313 558.7 297.6 563.3 315.9 581.5 317 568.3 329.9 576.3 346.4 558.6 341 548.3 356.5 543.9 338.7 525.5 337.1 538.9 324.7 530.7 307.7Z" fill="rgba(51, 121, 194, 0.58)"></path>
        <path d="M1063.7 336.5L1116.3 343.9 1144.5 381.9 1097.5 387.3 1056.1 354.1C1056.1 354.1 1055.5 353.9 1055.5 353.9 1054.3 353.4 1052.6 354 1051.5 354.9 1050.2 356.4 1050.6 358.7 1052.4 359.5L1088.7 388.4 1065.9 391.1 1049.7 378.5C1049.7 378.5 1049.1 378.3 1049.1 378.3 1047.9 377.8 1046.3 378.5 1045.2 379.4 1043.8 380.9 1044.2 383.2 1046 383.9L1056.8 392.8 1040 394.6C1038.6 394.7 1037 396.7 1037 398.2 1036.9 400.2 1039.2 401.2 1040.6 401.1L1057.5 399.3 1048.6 410.1C1047.3 411.7 1047.7 413.9 1049.4 414.7 1050.9 416 1053.2 415.6 1054 413.9L1066.5 397.7 1089.1 395.6 1060.1 431.9C1058.8 433.4 1059.2 435.6 1061 436.4 1062.5 437.7 1064.7 437.3 1065.5 435.6L1098.7 394.2 1145.7 388.7 1126.7 432.7 1077 452.4C1075.4 453.1 1074.6 454.8 1075.3 456.5 1075.9 458.2 1077.7 459 1079.4 458.3L1123.1 441 1114 462.1 1095.5 469.4C1093.8 470.1 1093 471.9 1093.7 473.6 1094.4 475.2 1096.1 476 1097.8 475.3L1110.4 470.3 1103.3 486.8C1102 488.3 1103.2 490.2 1105 491 1106.8 491.7 1108.4 491.1 1109.2 489.3L1115.8 474 1120.8 486.7C1121.5 488.3 1123.2 489.1 1124.9 488.4S1127.4 486 1126.7 484.3L1119.4 465.8 1128.5 444.7 1145.8 488.4C1146.5 490.1 1148.3 490.9 1150 490.2 1151.6 489.5 1152.4 487.8 1151.7 486.1L1132.1 436.4 1150.8 393 1179 431 1171.6 482.1C1171.4 484.1 1172.9 485.5 1174.7 486.2 1176.7 486.4 1178 484.9 1178.8 483.1L1185.4 437.2 1199.1 455.6 1195.9 475.9C1195.7 477.9 1197.2 479.2 1199 480 1201 480.2 1202.3 478.7 1202.9 477.5L1204.7 463.6 1214.9 477.1C1215.8 478.2 1218.1 479.2 1219.5 477.7 1220.8 476.2 1221.6 474.4 1220.1 473.1L1209.9 459.6 1223.7 461.4C1225.8 461.6 1227.1 460.1 1227.6 458.9 1227.5 457.5 1226.9 455.8 1225.7 455.3 1225.7 455.3 1225.1 455 1225.1 455L1204.9 451.9 1191.2 433.4 1237.2 440C1239.2 440.2 1240.5 438.7 1241 437.5 1241 436.1 1240.3 434.4 1239.1 433.9 1239.1 433.9 1238.5 433.7 1238.5 433.7L1186 426.3 1157.7 388.3 1204.7 382.8 1246.2 416C1247.7 417.4 1249.9 417 1250.7 415.2 1252 413.7 1251.6 411.4 1249.9 410.7L1213.6 381.7 1236.3 379 1252.5 391.6C1254 392.9 1256.3 392.5 1257.1 390.8 1258.4 389.3 1258 387 1256.2 386.2L1245.4 377.4 1262.2 375.6C1263.7 375.5 1265.3 373.4 1265.2 372 1265.1 370.5 1264.2 369.4 1263 368.9 1262.4 368.7 1261.8 368.4 1261 368.8L1244.2 370.6 1253 359.7C1254.4 358.2 1254 356 1252.2 355.2 1252.2 355.2 1251.6 355 1251.6 355 1250.5 354.4 1248.8 355.1 1247.7 356L1235.1 372.2 1212.3 374.9 1241.3 338.6C1242.6 337.1 1242.2 334.8 1240.4 334.1 1240.4 334.1 1239.8 333.8 1239.8 333.8 1238.7 333.3 1237 334 1235.9 334.9L1202.7 376.3 1155.7 381.8 1174.4 338.3 1224.1 318.6C1225.8 318 1226.5 316.2 1225.9 314.5 1225.2 312.9 1223.4 312.1 1221.8 312.8L1178.3 329.5 1187.4 308.4 1205.9 301C1207.6 300.4 1208.4 298.6 1207.7 296.9S1205.3 294.5 1203.6 295.1L1191 300.1 1197.6 284.9C1198.3 283.1 1197.6 281.4 1195.9 280.7 1194.1 279.9 1192.4 280.6 1191.7 282.3L1185.1 297.6 1180.1 285C1179.7 284.1 1179.4 283.3 1178.2 282.8S1176.2 282.6 1175.4 283C1173.7 283.6 1172.9 285.4 1173.6 287.1L1180.9 305.6 1171.8 326.7 1154.4 283C1154.1 282.1 1153.8 281.3 1152.6 280.8 1152 280.5 1150.6 280.6 1149.7 280.9 1148.1 281.6 1147.3 283.4 1148 285.1L1167.7 334.7 1148.9 378.2 1120.7 340.2 1128 287.6C1128 286.2 1127.3 284.5 1126.1 284 1126.1 284 1125.5 283.7 1125.5 283.7 1123.5 283.6 1122.2 285.1 1121.7 286.2L1115.1 332.2 1101.4 313.7 1104.6 293.5C1104.5 292.1 1103.8 290.4 1102.7 289.9 1102.7 289.9 1102.1 289.6 1102.1 289.6 1100.1 289.5 1098.7 291 1098.2 292.1L1096.4 306 1086.2 292.5C1085.6 292.3 1085.3 291.4 1084.7 291.2 1083.5 290.7 1082.1 290.7 1081 291.7 1079.6 293.2 1078.9 294.9 1080.4 296.3L1090.6 309.8 1076.7 308C1074.7 307.8 1073.4 309.3 1072.8 310.5 1072.7 312.5 1074.2 313.8 1075.4 314.3L1095.6 317.5 1109.2 336 1063.3 329.3C1061.3 329.2 1059.9 330.7 1059.4 331.9 1060.4 334.4 1061.7 336.3 1063.7 336.5Z" fill="rgba(51, 121, 194, 0.58)"></path>
        <path d="M48.9 557.9L56.5 551.4 58 557.9C58.1 558.7 58.9 559.3 59.9 559.3 60.7 558.9 61.3 558 61.2 557.3L59.4 548.6 66.5 542.6 70 560.3C70.3 561.4 71.1 562 71.9 561.6 73 561.6 73.6 560.8 73.3 559.7L69.3 540.1 75.6 534.5 94.1 540.6 95.7 547.9 79.6 561.8C79.5 562.1 79.4 562.4 79.3 562.7 79.2 563 79.3 563.7 79.5 564.1 80.2 565 81.3 565 81.9 564.2L96.5 551.5 98.3 560.5 91 567.2C90.7 567.1 90.6 567.4 90.5 567.7 90.3 568.3 90.4 569 90.9 569.6 91.4 570.1 92.4 570.1 93.2 569.7L99.1 564.2 101.4 575.4C101.5 576.1 102.3 576.7 103.3 576.7 104.1 576.3 104.7 575.5 104.6 574.8L102.4 564.3 108.8 566.4C109.7 566.7 110.6 566 110.8 565.4 111.1 564.5 110.8 563.4 109.9 563.1L101.7 560.3 100 551.3 117 557C117.9 557.3 118.7 556.9 119 556 119.3 555.1 118.9 554.3 118 553.9L99.2 547.7 97.3 540 112.1 527 119.1 529.4 123.2 549.3C123.2 550.3 124.4 551 125.2 550.6 126.2 550.6 126.5 549.7 126.5 548.7L122.7 530.6 131.5 533.5 133.3 542.5C133.4 543.2 134.5 543.9 135.2 543.8S136.6 542.6 136.6 541.6L135.2 534.7 145.8 538.2C146.7 538.5 147.6 537.8 147.9 536.9 148.1 536.3 147.8 535.2 146.9 534.9L136.3 531.4 141.6 526.4C142.1 525.9 142.5 525 141.7 524.1 141.2 523.6 139.9 523.5 139.4 524L132.6 530.2 123.8 527.2 137.7 515C138.3 514.2 138.6 513.3 137.9 512.3 137.4 511.8 136.1 511.7 135.6 512.2L120.2 526 113.2 523.7 109.1 504.5 115.2 499.4 134 505.7C134.9 506 135.8 505.6 136.1 504.7 136.4 503.7 136.1 502.6 135.1 502.3L118.1 496.7 124.9 490.5 133.1 493.2C134 493.5 134.8 493.1 135.1 492.2 135.4 491.3 135 490.5 134.1 490.2L127.7 488.1 135.8 481C136.3 480.5 136.4 479.2 135.9 478.6 135.1 478 134.2 477.7 133.6 478.5L125.1 485.8 123.6 478.3C123.2 477.4 122.4 476.8 121.7 476.9 121 477 120.5 477.5 120.3 478.2 120.3 478.2 120.2 478.5 120.4 478.9L122.2 488.6 115.4 494.8 111.2 475.8C111.2 474.8 110.4 474.2 109.3 474.5 108.9 474.7 108.5 474.9 108.3 475.5 108.2 475.8 108.1 476.1 108 476.4L112.6 497.2 106.9 502 88.4 495.9 86.8 487.6 101.6 474.3C102.5 473.6 102.5 472.6 101.7 472 101.3 471.2 100.3 471.2 99.4 471.9L86 483.9 83.9 474.8 90.6 469C91.1 468.5 91.1 467.4 90.7 466.6 89.9 466 89 465.7 88.4 466.5L83.2 470.9 81.1 461.1C81.1 460.1 80.2 459.8 79.2 459.8 78.8 460 78.2 460.5 78 461.1 78 461.1 77.9 461.4 77.8 461.7L80.1 472.2 72.5 469.7C71.9 469.5 70.8 469.8 70.5 470.7 70.2 471.6 70.9 472.5 71.5 472.7L80.9 475.9 82.9 485 64.4 478.8C63.5 478.5 62.6 479.2 62.3 480.1S62.4 481.8 63.3 482.1L83.6 488.9 85.2 496.5 70.4 509.5 62.5 506.8 58.4 486.6C58 485.8 57.2 485.2 56.2 485.2 55.8 485.4 55.3 485.9 55.1 486.5 55 486.8 54.9 487.1 55.1 487.5L58.9 505.6 50 502.7 48 493.6C47.9 492.9 47.1 492.3 46.1 492.3 45.3 492.7 44.7 493.5 44.8 494.2L46.4 501.5 36.7 498.3C36.1 498.1 34.9 498.7 34.7 499.3 34.4 500.2 35 501.4 35.6 501.6L45.3 504.8 39.7 509.4C39.6 509.7 39.5 510 39.4 510.3 39.2 510.9 39.3 511.6 39.5 512 40.3 512.6 41.4 512.6 42.2 512.2L48.9 506 57.7 509 43.9 521.2C43 521.9 43 522.9 43.5 523.4 44.2 524.4 45.2 524.4 46 524L61.4 510.2 69.3 512.8 73.3 532 67.6 537.2 47.2 530.4C46.3 530.1 45.5 530.5 45.2 531.4 44.9 532.4 45.3 533.2 46.2 533.5L64.7 539.6 57.7 545.7 48.3 542.6C47.6 542.4 46.4 543 46.1 543.9 45.8 544.8 46.5 545.7 47.1 545.9L54.7 548.4 46.6 555.5C46.5 555.8 46.5 555.8 46.4 556.1 46.2 556.7 46.3 557.4 46.5 557.9 47.4 558.5 48.4 558.5 48.9 557.9ZM72.9 514L72.6 511.9 74 510.7 86 500.1 87.4 498.9 89.2 499.5 104.1 504.5 105.9 505.1 106.3 506.9 109.6 522.5 110 524.3 108.5 525.8 96.6 536.1 95.1 537.6 93.3 537 78.4 532 76.6 531.4 76.3 529.3 72.9 514Z" fill="rgba(51, 121, 194, 0.58)"></path>
        <path d="M956.2 176.3L943.1 183.9 942.7 173.8C942.8 172.7 941.8 171.6 940.3 171.3 939 171.7 937.9 172.7 937.8 173.7L938 187.1 925.9 194 925.7 166.9C925.5 165.2 924.5 164.1 923.2 164.5 921.7 164.2 920.6 165.2 920.7 166.9L921 196.8 910.2 203.4 884.6 189.1 884.3 177.9 911.9 162C912.2 161.6 912.4 161.1 912.6 160.7 912.9 160.3 912.9 159.2 912.7 158.6 911.9 157 910.5 156.8 909.3 157.8L884.1 172.3 884.2 158.5 896.8 150.7C897.2 151 897.4 150.5 897.7 150.1 898.1 149.3 898.2 148.2 897.6 147.3 897 146.4 895.5 146.2 894.2 146.5L884 152.9 883.7 135.7C883.8 134.6 882.8 133.5 881.3 133.2 880 133.6 878.8 134.6 878.8 135.7L879.1 151.8 870.3 146.9C869.1 146.2 867.5 147 867 147.8 866.3 149.1 866.5 150.8 867.7 151.5L879 157.8 879 171.6 855.6 158.4C854.3 157.7 853 158.1 852.3 159.4 851.6 160.6 852 161.9 853.2 162.6L879.2 177.2 879.7 189 854.3 203.9 844.6 198.5 844.2 168C844.4 166.5 843 165.1 841.7 165.5 840.2 165.2 839.5 166.5 839.2 168L839.6 195.7 827.5 188.9 827.5 175.2C827.5 174.1 826.1 172.7 825 172.7S822.6 174.1 822.3 175.6L822.5 186.1 807.8 177.9C806.5 177.2 805 178 804.3 179.2 803.8 180 804 181.8 805.2 182.5L819.9 190.7 810.6 196.5C809.7 197.1 809 198.3 809.8 199.9 810.4 200.8 812.3 201.3 813.2 200.7L824.9 193.5 837 200.3 813.2 214.4C812 215.5 811.3 216.7 812.1 218.3 812.7 219.2 814.6 219.7 815.5 219.1L842.1 203.1 851.7 208.5 852.2 238 841.8 243.7 815.9 229.2C814.6 228.5 813.3 228.9 812.6 230.1 811.9 231.4 812.1 233.1 813.3 233.8L836.8 246.9 825 254.1 813.7 247.8C812.5 247.1 811.2 247.4 810.4 248.7 809.7 250 810.1 251.3 811.4 252L820.2 256.9 806.2 265C805.3 265.7 804.8 267.6 805.4 268.4 806.4 269.6 807.7 270.3 808.8 269.3L823.4 260.9 823.5 272.5C823.9 273.8 824.9 275 826 275 827 275.1 827.9 274.5 828.4 273.6 828.4 273.6 828.6 273.2 828.4 272.6L828.5 257.7 840.2 250.5 841 279.6C840.7 281.1 841.7 282.2 843.5 282.1 844.1 281.9 844.8 281.7 845.2 280.9 845.5 280.5 845.7 280 845.9 279.6L845.1 247.8 854.8 242.2 880.3 256.5 880.4 269.2 854.7 284.5C853.2 285.3 852.9 286.8 853.9 287.9 854.3 289.3 855.8 289.5 857.3 288.8L880.6 274.8 881 288.8 869.5 295.6C868.6 296.2 868.3 297.7 868.7 299 869.7 300.1 870.9 300.8 872.1 299.8L880.9 294.8 881.2 309.9C881 311.4 882.2 312.1 883.7 312.4 884.4 312.2 885.3 311.6 885.7 310.7 885.7 310.7 886 310.3 886.2 309.9L885.9 293.8 896.3 299.6C897.2 300.1 898.9 300 899.6 298.7 900.3 297.5 899.5 295.9 898.7 295.5L885.7 288.2 885.3 274.2 910.8 288.5C912.1 289.2 913.6 288.4 914.4 287.2S914.7 284.6 913.4 283.9L885.4 268.2 885.3 256.6 910.7 241.7 921.6 247.8 921.8 278.7C922.2 280 923.2 281.1 924.7 281.4 925.4 281.2 926.3 280.6 926.7 279.8 927 279.4 927.2 279 927 278.3L926.6 250.6 938.8 257.4 939.2 271.4C939.1 272.4 940.1 273.6 941.6 273.9 942.9 273.5 944.1 272.5 944.1 271.4L943.8 260.2 957.2 267.7C958 268.2 960 267.6 960.5 266.8 961.2 265.5 960.6 263.6 959.8 263.1L946.4 255.6 955.9 250.5C956.1 250 956.3 249.6 956.6 249.2 957 248.4 957.1 247.3 956.9 246.6 955.9 245.5 954.4 245.2 953.1 245.6L941.3 252.8 929.2 246 953.1 231.9C954.6 231.1 954.9 229.6 954.3 228.7 953.5 227.1 952 226.9 950.7 227.2L924.2 243.2 913.3 237 912.8 207.6 922.7 201.6 950.8 217.3C952 218 953.3 217.7 954 216.4 954.7 215.2 954.4 213.9 953.1 213.2L927.6 198.8 939.7 191.9 952.7 199.2C953.5 199.6 955.5 199.1 956.2 197.8 956.9 196.6 956.1 195 955.3 194.6L944.8 188.7 958.8 180.5C959 180.1 959 180.1 959.2 179.7 959.7 178.9 959.7 177.8 959.6 177.1 958.5 176 957 175.7 956.2 176.3ZM908.3 234.2L908.1 237.4 905.7 238.8 885.1 251 882.7 252.4 880.2 250.9 859.7 239.4 857.2 238 857.1 235.2 856.7 211.4 856.6 208.6 859.3 206.8 879.6 195 882.3 193.2 884.8 194.6 905.3 206.2 907.8 207.6 907.7 210.8 908.3 234.2Z" fill="rgba(51, 121, 194, 0.58)"></path>
        <path d="M1442.1 414.7L1426.8 436.4 1403.5 440.3 1411.7 418.2 1436 407.3C1436 407.3 1436.2 407.1 1436.2 407.1 1436.7 406.7 1436.8 405.8 1436.7 405.1 1436.3 404.2 1435.2 403.8 1434.5 404.4L1413.3 414 1417.3 403.2 1426.6 398.9C1426.6 398.9 1426.8 398.7 1426.8 398.7 1427.3 398.3 1427.4 397.4 1427.3 396.7 1426.9 395.8 1425.8 395.4 1425 396L1418.6 398.8 1421.7 390.9C1422 390.3 1421.4 389.1 1420.7 388.8 1419.9 388.3 1418.9 389.1 1418.6 389.7L1415.6 397.6 1412.8 391.2C1412.4 390.3 1411.3 389.9 1410.6 390.5 1409.6 390.9 1409.3 392 1409.9 392.7L1414.2 402 1410 412.5 1400.5 391.4C1400.1 390.4 1399 390.1 1398.3 390.7 1397.3 391.1 1397 392.2 1397.6 392.9L1408.4 417.1 1400.1 439.3 1384.9 420.8 1387.5 394.2C1387.6 393.3 1387 392.5 1386.1 392.5 1385.2 392.4 1384.4 393 1384.3 393.9L1382.1 417.3 1374.7 408.4 1375.7 398.5C1375.8 397.6 1375.2 396.9 1374.3 396.8 1373.4 396.7 1372.6 397.3 1372.5 398.2L1371.9 405 1366.2 398C1365.8 397.1 1364.7 397.2 1363.9 397.8 1363.2 398.4 1363.1 399.3 1363.7 400.1L1369 406.5 1362.3 405.8C1361.4 405.7 1360.6 406.4 1360.5 407.3S1361 408.9 1361.9 409L1371.9 409.9 1379.2 418.8 1355.8 416.6C1354.8 416.5 1354.1 417.1 1354 418 1353.9 418.9 1354.5 419.6 1355.4 419.7L1382 422.3 1397.1 440.6 1373.7 444.5 1352.7 429.5C1351.8 428.9 1350.9 429.3 1350.1 429.9 1349.6 430.7 1350 431.7 1350.6 432.4L1369.5 445.9 1358.2 447.7 1349.9 441.7C1349 441.1 1348.1 441.5 1347.4 442.1 1346.8 443 1347.2 443.9 1347.6 444.4L1353.3 448.4 1345 449.8C1344.3 450 1343.3 450.8 1343.7 451.8 1344 452.7 1344.7 453.5 1345.6 453.1L1353.9 451.6 1350 457.4C1349.4 458.2 1349.8 459.2 1350.2 459.7 1350.8 460 1351.7 460.1 1352.2 459.6 1352.2 459.6 1352.5 459.4 1352.5 459.4L1358.5 451.2 1369.8 449.3 1356.4 468.2C1355.9 469.1 1356.2 470 1356.6 470.5 1357.3 470.8 1358.2 470.9 1358.7 470.5 1358.7 470.5 1358.9 470.3 1358.9 470.3L1374.2 448.6 1397.6 444.7 1389.3 466.9 1365 477.7C1364.1 478.1 1363.8 479.2 1364.4 479.9 1364.7 480.9 1365.8 481.2 1366.6 480.6L1387.7 471.1 1383.7 481.8 1374.4 486.1C1373.5 486.5 1373.2 487.6 1373.8 488.3 1374.1 489.3 1375.2 489.6 1376 489L1382.4 486.2 1379.3 494.1C1379.1 494.8 1379.6 496 1380.3 496.2 1380.9 496.5 1381.6 496.4 1382.1 496 1382.4 495.8 1382.6 495.6 1382.7 495.1L1385.7 487.2 1388.5 493.6C1388.9 494.6 1390 494.9 1390.7 494.3 1390.7 494.3 1390.9 494.1 1390.9 494.1 1391.4 493.7 1391.5 492.8 1391.4 492.1L1387 482.8 1391 472.1 1400.6 493.2C1400.9 494.2 1402 494.5 1402.8 493.9 1402.8 493.9 1403 493.7 1403 493.7 1403.5 493.3 1403.6 492.4 1403.5 491.7L1392.6 467.4 1400.9 445.3 1416 463.6 1413.4 490.2C1413.3 491.1 1413.9 491.8 1414.8 491.9 1415.7 492 1416.4 491.4 1416.5 490.5L1419 467.3 1426.3 476.2 1425.4 486.1C1425.3 487 1425.9 487.7 1426.8 487.8S1428.4 487.3 1428.5 486.4L1429.2 479.6 1434.5 486.1C1435.1 486.8 1436 486.9 1436.7 486.3 1437.5 485.7 1437.5 484.8 1436.9 484L1431.7 477.6 1438.4 478.3C1438.9 478.3 1439.3 478.4 1439.8 477.9S1440.3 477.1 1440.4 476.6C1440.5 475.7 1439.9 475 1439 474.9L1429.1 473.9 1421.7 465 1445.2 467.3C1445.6 467.4 1446.1 467.4 1446.6 467 1446.8 466.8 1447.1 466.2 1447.1 465.7 1447.2 464.8 1446.6 464.1 1445.7 464L1419.1 461.4 1404.1 443.1 1427.4 439.2 1449.1 454.5C1449.8 454.8 1450.7 454.9 1451.2 454.5 1451.2 454.5 1451.4 454.3 1451.4 454.3 1452 453.4 1451.6 452.5 1451.2 452L1432.3 438.6 1443.6 436.7 1451.9 442.7C1452.5 443 1453.4 443.1 1453.9 442.7 1453.9 442.7 1454.2 442.5 1454.2 442.5 1454.7 441.7 1454.3 440.7 1453.9 440.2L1448.2 436.2 1456.5 434.8C1456.8 434.6 1457.2 434.6 1457.5 434.4 1457.9 434 1458.2 433.4 1458.1 432.7 1457.7 431.7 1457.1 431 1456.2 431.3L1447.8 432.8 1451.8 427.1C1452.3 426.2 1452 425.3 1451.6 424.8 1450.7 424.2 1449.8 424.6 1449.3 425L1443.2 433.3 1431.9 435.1 1445.4 416.2C1445.9 415.3 1445.5 414.4 1445.1 413.9 1443.8 413.8 1442.6 413.9 1442.1 414.7Z" fill="rgba(51, 121, 194, 0.58)"></path>
        <path d="M893.3 551L872 536.9 870.3 527.8 877.5 532.5C878.1 533.2 879.1 532.9 879.8 532.2 880.1 531.6 879.9 530.4 879.2 530.1L869.5 523.4 867.6 514.4 876.2 517.5 881.4 528.2C881.4 528.2 881.6 528.5 881.6 528.5 882 529 882.9 529 883.6 528.8 884.4 528.2 884.6 527.5 884.2 526.6L880.4 518.9 889.1 521.9 900.5 544.7C900.5 544.7 900.5 545.1 900.5 545.1 900.9 545.6 901.8 545.6 902.5 545.5 903.5 545.1 903.8 544 903.1 543.2L893.3 523.3 904 526.7 908.4 535.6C908.4 535.6 908.4 535.6 908.6 535.9 909 536.4 909.7 536.6 910.4 536.4 911.1 535.8 911.6 534.9 911.2 534L908.2 528.1 915.9 530.7C916.8 531.2 917.5 530.6 917.8 529.9 918.3 529 917.9 528.1 916.8 527.8L909.3 525 915.1 522.5C915.8 521.8 916.3 521 915.7 520.2 915.3 519.3 914.7 519 913.7 519.4L904.8 523.8 894.4 520.2 914.5 510.2C915.2 510 915.5 508.9 915.1 508 914.7 507.5 913.8 507 912.9 507.4L890.2 518.8 881.5 515.8 889.3 512C890.2 511.6 890.2 510.7 889.9 509.7 889.7 509 888.6 508.7 887.9 508.9L877.3 514.4 868.4 511.5 875.4 505.4 887.1 506.2C888 506.2 888.8 505.6 888.8 504.7 889.1 504 888.2 503.1 887.3 503L878.8 502.4 885.7 496.3 911.2 498.2C912.1 498.2 912.9 497.6 912.9 496.7 913 495.8 912.3 495.1 911.4 495L889.1 493.4 897.3 486.2 907.2 486.8C908.1 486.9 908.8 486.2 908.9 485.3 908.9 484.4 908.3 483.7 907.4 483.7L900.9 483 906.9 477.7C907.6 477.1 907.7 476.2 907 475.5 906.4 474.7 905.5 474.7 904.8 475.3L898.8 480.6 899.2 474.3C899.2 473.4 898.6 472.7 897.7 472.6S896.1 473.2 896 474.1L895.4 483.6 887 491 888.4 468.8C888.5 467.9 887.8 467.2 886.9 467.1 886 467.1 885.3 467.7 885.2 468.6L883.6 493.9 876.6 500 877.2 491.5C877.3 490.6 876.6 489.8 875.7 489.8 874.8 489.7 874.1 490.4 874 491.3L873.3 503 866.6 508.9 864.8 500.2 871.4 490.2C871.7 489.5 871.5 488.4 870.8 488.1 870 487.6 869.3 487.8 868.5 488.4L863.8 495.6 862.1 486.9 876.1 465.5C876.6 464.7 876.5 464 875.8 463.3 875 462.8 874 463.1 873.5 463.6L861 482.3 859 471.2 864.3 463.2C865 462.6 864.6 461.6 864 460.9 863.3 460.6 862.2 460.8 861.6 461.7L858.1 466.9 856.4 459.1C856.4 458.2 855.6 457.7 854.4 457.8 853.7 458 853.2 458.9 853.4 459.6L854.9 467.6 849.5 463.8C848.6 463.3 847.7 463.7 847.4 464.4 846.7 465 846.9 465.7 847.3 466.2 847.5 466.4 847.5 466.4 847.7 466.7L855.8 472 857.8 483 839.3 470.7C838.7 469.9 837.7 470.3 837 471 836.7 471.6 836.9 472.3 837.4 472.8 837.6 473 837.6 473 837.6 473L858.9 487.6 860.6 496.3 853.4 491.5C852.5 491 851.8 491.2 851.1 491.8 850.8 492.5 850.8 493.4 851.2 493.9 851.4 494.1 851.4 494.1 851.6 494.4L861.6 500.9 863.3 509.6 854.9 506.8 849.5 496.3C849.1 495.3 847.9 495 847.3 495.2 846.5 495.8 846 496.7 846.7 497.4L850.5 505.2 841.8 502.6 830.4 479.4C830.2 478.7 829.1 478.4 828.4 478.6 827.6 479.2 827.1 480.1 827.5 481L837.4 500.9 826.9 497.3 822.7 488.7C822.3 487.7 821.2 487.4 820.5 488.1 819.8 488.2 819.3 489.1 819.7 490L822.7 495.9 814.9 493.4C814.3 493.1 813.4 493.5 812.8 494.4 812.8 494.8 813 495.5 813.4 496 813.4 496 813.6 496.2 813.8 496.5L821.6 499 815.8 502C815.1 502.2 814.8 503.3 814.9 504 815.2 504.3 815.2 504.3 815.2 504.3 815.8 505 816.7 505 817.2 504.6L825.8 500.4 836.5 503.8 816.4 513.9C815.6 514.5 815.4 515.2 815.8 516.1 815.8 516.1 816 516.3 816 516.3 816.4 516.8 817.1 517.1 818 516.7L840.9 505.5 849.4 508.3 841.6 512.1C840.9 512.7 840.4 513.6 841 514.3 840.8 514.5 841 514.8 841 514.8 841.4 515.2 842.3 515.3 843 515.1L853.6 509.7 862.2 512.7 855.5 518.6 843.8 517.9C842.9 517.8 841.9 518.7 841.8 519.6 842 520.3 842.7 521 843.3 521.3L852.1 521.6 845.2 527.7 819.9 526.1C819 526 818.3 526.7 818.2 527.6 818.1 528.5 818.8 529.2 819.7 529.3L841.8 530.7 833.4 538.1 823.9 537.5C823 537.4 822.3 538.1 822.2 539S822.8 540.6 823.7 540.6L830 541 824 546.3C823.3 547 823.2 547.9 823.9 548.6 824.5 549.3 825.4 549.4 826.1 548.7L832.1 543.4 831.9 550C831.9 550.5 831.9 550.9 832.1 551.2 832.3 551.4 833 551.7 833.4 551.7 834.3 551.7 835 551.1 835.1 550.2L835.5 540.5 843.9 533.1 842.7 555.5C842.7 555.9 842.6 556.4 842.9 556.6 843.1 556.8 843.7 557.1 844.2 557.1 845.1 557.2 845.8 556.6 845.9 555.7L847.3 530.1 854.2 524 853.5 532.8C853.4 533.2 853.9 533.7 854.1 534 854.3 534.2 854.5 534.4 854.9 534.5 855.8 534.5 856.8 533.7 856.6 533L857.6 521 864.3 515.1 866.3 524.1 859.5 533.9C859.2 534.5 859.2 535.4 859.6 535.9 859.8 536.2 859.8 536.2 860.1 535.9 860.7 536.7 861.8 536.5 862.3 535.6L867.1 528.5 869 537.4 854.5 558.7C854.2 559.4 854.4 560.1 854.9 560.5 855.1 560.8 855.1 560.8 855.1 560.8 855.9 561.3 856.8 561.4 857.3 560.5L869.9 541.8 871.9 552.8 866.6 560.8C866.1 561.7 866.3 562.4 866.7 562.9 866.7 562.9 866.9 563.1 866.9 563.1 867.8 563.6 868.7 563.3 869.2 562.8L872.8 557.2 874.3 565.2C874.5 565.4 874.7 565.7 874.9 565.9 875.1 566.2 875.8 566.4 876.2 566.5 877.2 566.1 877.9 565.4 877.5 564.5L876 556.5 881.4 560.2C882.3 560.7 883.2 560.3 883.7 559.9 884.2 559 883.8 558.1 883.2 557.4L875.1 552.1 872.9 541.3 891.3 553.6C892.2 554.1 893.4 553.9 893.6 553.3 894.1 552.4 894.2 551.5 893.3 551Z" fill="rgba(51, 121, 194, 0.58)"></path>
        <path d="M1321.7 104.5L1353.6 102.1 1362.3 109.9 1351.5 110.7C1350.3 110.5 1349.7 111.6 1349.5 112.7 1349.7 113.6 1350.8 114.6 1351.6 114.4L1366.4 113.5 1375.2 120.9 1364.3 124.5 1350.9 117.9C1350.9 117.9 1350.6 117.8 1350.6 117.8 1349.8 117.7 1348.8 118.3 1348.3 119 1348.1 120.2 1348.3 121.1 1349.4 121.7L1359.1 126.4 1348.2 130 1319.5 116.3C1319.5 116.3 1319.2 115.9 1319.2 115.9 1318.4 115.7 1317.4 116.3 1316.9 117.1 1316.3 118.2 1316.8 119.5 1318 119.7L1343 131.8 1329.8 136.7 1318.6 131.2C1318.6 131.2 1318.6 131.2 1318.3 131.2 1317.5 131 1316.6 131.3 1316.1 132 1315.8 133.1 1316 134.4 1317.1 135L1324.6 138.5 1315 141.9C1313.7 142.1 1313.5 143.3 1313.7 144.1 1313.9 145.4 1315 146 1316.3 145.5L1325.9 142.4 1322.1 149.4C1321.9 150.6 1322 151.8 1323.2 152.1 1324.3 152.7 1325.2 152.5 1325.8 151.4L1331.2 140.2 1344.3 135.8 1332.1 161.1C1331.5 161.8 1332.1 163.1 1333.2 163.8 1334 163.9 1335.2 163.8 1335.8 162.7L1349.5 133.9 1360.4 130.3 1355.7 140C1355 141.1 1355.7 142 1356.8 142.6 1357.5 143.2 1358.8 142.6 1359.4 141.9L1365.6 128.5 1376.6 124.5 1374.4 135.8 1362.2 144.1C1361.3 144.7 1361 145.9 1361.7 146.8 1361.9 147.7 1363.5 148 1364.4 147.4L1373.3 141.3 1371.1 152.7 1344.5 170.4C1343.6 171.1 1343.4 172.2 1344 173.2 1344.6 174.1 1345.8 174.3 1346.7 173.7L1370.1 158.2 1367.5 171.6 1357.2 178.6C1356.3 179.2 1356 180.4 1356.7 181.3 1357.3 182.3 1358.5 182.5 1359.4 181.9L1366.4 177.5 1364.5 187.3C1364.3 188.5 1364.9 189.4 1366.1 189.6 1367.3 189.9 1368.2 189.2 1368.4 188.1L1370.3 178.2 1374.7 184.8C1375.4 185.7 1376.6 186 1377.5 185.3S1378.7 183.5 1378 182.6L1371.4 172.7 1374 159 1389.6 181.9C1390.2 182.9 1391.4 183.1 1392.3 182.5 1393.2 181.8 1393.5 180.7 1392.8 179.7L1375.1 153.5 1377.3 142.1 1383.3 151C1383.9 151.9 1385.1 152.2 1386 151.5 1387 150.9 1387.2 149.7 1386.6 148.8L1378.3 136.6 1380.4 125.6 1388.8 132.9 1390 147.8C1390.2 148.7 1391.3 149.7 1392.1 149.4 1393.4 149.3 1393.9 148.6 1394.2 147.4L1393.4 136.6 1401.7 144 1404.2 175.8C1404.3 177 1405.1 177.6 1406.2 177.8 1407.5 177.6 1408.1 176.5 1408.3 175.8L1406.3 147.7 1416.7 157 1417.7 169C1417.5 170.2 1418.6 170.8 1419.8 171 1420.6 170.8 1421.6 169.8 1421.5 168.5L1420.9 160.7 1428.7 167.1C1429.3 168 1430.6 167.8 1431.6 166.8 1432.1 166.1 1431.9 164.8 1431.2 164.3L1423.6 157.5 1431.8 157.1C1433.1 156.9 1433.7 155.8 1433.4 154.9 1433.7 153.8 1433 153.2 1432.2 153.1 1431.8 153 1431.8 153 1431.4 152.9L1419.4 153.9 1409 144.5 1436.6 142.5C1437.8 142.7 1438.4 141.6 1438.7 140.5 1438.4 139.6 1437.7 139.1 1436.9 138.9 1436.5 138.8 1436.5 138.8 1436.5 138.8L1404.4 140.8 1396 133.5 1406.8 132.7C1408 132.5 1408.6 131.8 1408.8 130.6 1408.5 129.8 1407.9 128.8 1407.1 128.7 1406.7 128.6 1406.7 128.6 1406.3 128.5L1391.4 129.8 1383.1 122.4 1393.6 118.8 1407 125C1408.1 125.6 1409.4 125.1 1410 124.4 1410.2 123.2 1410 121.9 1408.9 121.7L1399.2 117 1409.7 112.9 1438.8 127C1439.5 127.6 1440.8 127 1441.4 126.3 1441.6 125.1 1441.4 123.9 1440.3 123.3L1415.4 111.1 1428.4 106.7 1439.2 112.1C1440.3 112.7 1441.7 112.1 1441.9 110.9 1442.4 110.2 1442.3 109 1441.2 108.4L1433.7 104.9 1443.3 101.4C1444.2 101.2 1444.8 100.1 1444.6 98.8 1444.3 98.4 1443.6 97.8 1442.8 97.7 1442.8 97.7 1442.4 97.6 1442 97.5L1432.4 101 1435.9 93.5C1436.4 92.8 1435.9 91.5 1435.2 90.9 1434.8 90.8 1434.8 90.8 1434.8 90.8 1433.6 90.6 1432.6 91.2 1432.5 92L1427.2 102.8 1414 107.6 1426.2 82.3C1426.5 81.1 1426.2 80.2 1425.1 79.6 1425.1 79.6 1424.7 79.5 1424.7 79.5 1423.9 79.4 1423.1 79.6 1422.4 80.7L1408.4 109.4 1397.9 113.1 1402.6 103.4C1402.8 102.2 1402.7 101 1401.5 100.7 1401.6 100.3 1401.2 100.3 1401.2 100.3 1400.4 100.1 1399.5 100.7 1398.9 101.5L1392.7 114.9 1381.8 118.5 1383.9 107.5 1396.1 99.3C1397 98.6 1397.3 97.1 1396.7 96.1 1396 95.6 1394.8 95.4 1393.9 95.6L1385 102 1387.1 90.6 1413.4 72.9C1414.3 72.2 1414.5 71.1 1413.9 70.1 1413.3 69.2 1412.1 69 1411.1 69.6L1388.2 85.1 1390.8 71.4 1400.7 64.7C1401.6 64.1 1401.8 62.9 1401.2 62S1399.4 60.8 1398.5 61.5L1391.9 65.9 1393.8 56.1C1394 54.9 1393.4 54 1392.2 53.7 1391 53.5 1390.1 54.1 1389.9 55.3L1388 65.1 1383.1 58.5C1382.8 58 1382.5 57.6 1382.1 57.5 1381.7 57.4 1380.9 57.7 1380.4 58 1379.4 58.6 1379.2 59.8 1379.9 60.7L1386.9 70.6 1384.3 84.4 1368.3 61.4C1368 60.9 1367.7 60.4 1367.3 60.4 1366.9 60.3 1366 60.5 1365.6 60.8 1364.6 61.5 1364.4 62.6 1365.1 63.6L1383.2 89.9 1381 101.3 1375.1 92C1374.8 91.5 1374 91.4 1373.6 91.3 1373.2 91.2 1372.8 91.1 1372.3 91.5 1371.4 92.1 1371.1 93.7 1371.8 94.2L1380 106.8 1377.9 117.8 1369.1 110.4 1368.3 95.6C1368 94.7 1367.4 93.8 1366.6 93.6 1366.2 93.5 1366.2 93.5 1366.1 93.9 1365 93.7 1364 94.7 1364.1 96L1364.9 106.7 1356.1 99.3 1354.2 67.2C1353.9 66.3 1353.2 65.8 1352.4 65.6 1352 65.6 1352 65.6 1352 65.6 1350.8 65.7 1349.9 66.4 1350 67.6L1352 95.7 1341.5 86.4 1340.6 74.4C1340.4 73.1 1339.7 72.6 1338.9 72.4 1338.9 72.4 1338.5 72.3 1338.5 72.3 1337.3 72.5 1336.7 73.6 1336.5 74.4L1337.3 82.7 1329.7 75.9C1329.3 75.9 1328.9 75.8 1328.5 75.7 1328.1 75.6 1327.3 75.9 1326.8 76.2 1326.2 77.3 1325.9 78.5 1327 79.1L1334.7 85.9 1326.5 86.3C1325.2 86.5 1324.6 87.6 1324.4 88.4 1324.6 89.6 1325.7 90.2 1326.9 90.5L1338.9 89.5 1349.4 98.5 1321.7 100.5C1320.5 100.6 1319.4 101.7 1319.7 102.5 1319.9 103.8 1320.5 104.7 1321.7 104.5Z" fill="rgba(51, 121, 194, 0.58)"></path>
        <path d="M308.4 417.1L291.8 437.9 268.3 440.4 277.9 418.7 302.7 409.4C302.7 409.4 303 409.2 303 409.2 303.5 408.8 303.6 407.9 303.5 407.2 303.2 406.2 302.1 405.8 301.3 406.4L279.7 414.7 284.3 404.2 293.8 400.4C293.8 400.4 294.1 400.2 294.1 400.2 294.6 399.8 294.7 399 294.6 398.2 294.3 397.3 293.2 396.9 292.5 397.4L285.9 399.8 289.4 392.2C289.7 391.5 289.2 390.3 288.6 390 287.8 389.4 286.7 390.1 286.4 390.8L282.9 398.5 280.5 391.9C280.2 390.9 279.1 390.5 278.3 391.1 277.4 391.4 277 392.5 277.5 393.3L281.3 402.8 276.5 413 268.2 391.3C267.9 390.4 266.8 390 266.1 390.5 265.1 390.8 264.7 391.9 265.3 392.7L274.6 417.5 265 439.2 250.9 419.7 255.1 393.4C255.2 392.5 254.6 391.7 253.8 391.6 252.9 391.4 252.1 392 251.9 392.9L248.3 416.1 241.5 406.8 243 397C243.2 396.1 242.6 395.3 241.7 395.2 240.8 395 240.1 395.6 239.9 396.5L238.9 403.2 233.6 395.9C233.3 395 232.1 395 231.4 395.6 230.6 396.1 230.4 397 231 397.8L235.9 404.5 229.2 403.5C228.3 403.3 227.5 403.9 227.4 404.8S227.8 406.5 228.7 406.6L238.5 408.2 245.3 417.5 222.1 413.8C221.2 413.7 220.4 414.2 220.2 415.1 220.1 416 220.7 416.8 221.6 416.9L247.9 421.1 261.9 440.3 238.3 442.7 218.2 426.5C217.4 425.9 216.4 426.2 215.7 426.8 215.1 427.6 215.4 428.6 215.9 429.3L234 443.9 222.6 445.1 214.7 438.5C213.9 437.9 212.9 438.3 212.2 438.8 211.6 439.6 211.9 440.6 212.2 441.1L217.8 445.4 209.4 446.4C208.6 446.5 207.6 447.3 207.9 448.2 208.2 449.2 208.8 450 209.8 449.7L218.2 448.7 213.8 454.2C213.3 455 213.6 456 213.9 456.5 214.6 456.8 215.5 457 216 456.6 216 456.6 216.2 456.4 216.2 456.4L222.8 448.5 234.2 447.3 219.6 465.4C219 466.3 219.3 467.2 219.7 467.7 220.4 468.1 221.3 468.2 221.8 467.8 221.8 467.8 222 467.6 222 467.6L238.6 446.9 262.1 444.4 252.5 466 227.7 475.4C226.7 475.7 226.3 476.8 226.9 477.6 227.2 478.5 228.3 478.9 229 478.4L250.7 470.1 246.1 480.6 236.6 484.4C235.6 484.7 235.2 485.8 235.8 486.5 236.1 487.5 237.2 487.9 237.9 487.3L244.5 484.9 241 492.6C240.7 493.3 241.2 494.5 241.8 494.8 242.4 495.1 243.1 495 243.6 494.7 243.9 494.5 244.2 494.3 244.2 493.8L247.7 486.1 250.1 492.7C250.4 493.7 251.5 494.1 252.3 493.5 252.3 493.5 252.6 493.3 252.6 493.3 253.1 492.9 253.2 492 253.1 491.3L249.3 481.8 254 471.3 262.2 493C262.5 494 263.6 494.4 264.4 493.8 264.4 493.8 264.7 493.6 264.7 493.6 265.2 493.2 265.3 492.4 265.2 491.6L255.8 466.8 265.4 445.2 279.4 464.3 275.2 490.7C275.1 491.6 275.6 492.4 276.5 492.5 277.4 492.7 278.2 492.1 278.3 491.2L282.2 468.2 289 477.5 287.4 487.4C287.3 488.3 287.8 489 288.7 489.2S290.4 488.8 290.5 487.9L291.6 481.2 296.5 487.9C297.1 488.7 297.9 488.8 298.7 488.2 299.5 487.7 299.6 486.8 299.1 486L294.2 479.3 300.9 480.3C301.3 480.4 301.8 480.5 302.3 480.1S302.9 479.3 303 478.8C303.1 477.9 302.5 477.2 301.6 477L291.8 475.5 285 466.1 308.3 469.8C308.7 469.9 309.2 470 309.7 469.6 310 469.4 310.3 468.8 310.4 468.3 310.5 467.4 309.9 466.6 309 466.5L282.7 462.3 268.7 443.2 292.3 440.7 313 457.3C313.6 457.6 314.5 457.7 315.1 457.4 315.1 457.4 315.3 457.2 315.3 457.2 315.9 456.4 315.6 455.4 315.2 454.9L297.1 440.3 308.5 439.2 316.4 445.7C317.1 446 318 446.2 318.5 445.8 318.5 445.8 318.8 445.6 318.8 445.6 319.3 444.8 319 443.8 318.7 443.3L313.2 439 321.6 438C321.8 437.8 322.3 437.9 322.5 437.7 323 437.3 323.4 436.7 323.2 436 322.9 435 322.4 434.2 321.4 434.6L313 435.5 317.3 430C317.9 429.2 317.6 428.2 317.2 427.7 316.4 427.1 315.4 427.4 314.9 427.8L308.4 435.7 297 436.9 311.5 418.8C312.1 418 311.8 417 311.4 416.5 310.1 416.3 308.9 416.3 308.4 417.1Z" fill="rgba(51, 121, 194, 0.58)"></path>
    </g>
    <defs>
        <mask id="SvgjsMask1036">
            <rect width="1440" height="560" fill="#ffffff"></rect>
        </mask>
        <filter id="SvgjsFilter1037">
            <feGaussianBlur stdDeviation="1"></feGaussianBlur>
        </filter>
    </defs>
</svg>